<?xml version="1.0" encoding="utf-8"?>
<!-- Generator: Adobe Illustrator 19.0.0, SVG Export Plug-In . SVG Version: 6.00 Build 0)  -->
<svg version="1.1" id="Calque_1" xmlns="http://www.w3.org/2000/svg" xmlns:xlink="http://www.w3.org/1999/xlink" x="0px" y="0px"
	 viewBox="0 0 100 100" style="enable-background:new 0 0 100 100;" xml:space="preserve">
<style type="text/css">
	.st0{fill:#F5F5F5;}
</style>
<path id="XMLID_17_" class="st0" d="M82,72.9v10.9c-8,7.3-19,11.7-32,11.7s-24-4.4-32-11.7V72.9c1-7.6,6.6-6.8,13.3-11.8
	c1.6-1.2,0,0,1.6-1.2c0.9-0.7,6.3-5.6,7.2-5c1.9,1.3,5.1,3.1,9.4,3.1l0.4,0l0.4,0c4.3,0,7.6-1.8,9.4-3.1c0.9-0.7,6.3,4.3,7.2,5
	c1.6,1.2,0,0,1.6,1.2C75.4,66.1,81,65.3,82,72.9z"/>
<path id="XMLID_16_" class="st0" d="M50.5,19.2c-8.7,0-17.4,6.8-16.2,17c1.3,10.4,7.1,18.7,15.8,18.7s14.8-8.5,15.8-18.7
	C66.8,25.9,59.2,19.2,50.5,19.2z"/>
</svg>
