<?xml version="1.0" encoding="utf-8"?>
<!-- Generator: Adobe Illustrator 19.0.0, SVG Export Plug-In . SVG Version: 6.00 Build 0)  -->
<svg version="1.1" id="socle" xmlns="http://www.w3.org/2000/svg" xmlns:xlink="http://www.w3.org/1999/xlink" x="0px" y="0px"
	 viewBox="0 0 300 300" style="enable-background:new 0 0 300 300;" xml:space="preserve">
<style type="text/css">
	.st0{fill:#12EAEA;}
	.st1{fill:#007991;}
	.st2{opacity:0.6;fill:#3394A7;}
	.st3{fill:#F5F5F5;}
	.st4{fill:#F8F6B0;stroke:#007991;stroke-width:0.542;stroke-miterlimit:10;}
	.st5{opacity:0.6;fill:#729BB0;}
	.st6{fill:#BCE7FD;stroke:#F5F5F5;stroke-width:0.5;stroke-miterlimit:10;}
	.st7{fill:#5CA9B9;}
	.st8{fill:#266F7D;}
	.st9{fill:#3394A7;}
	.st10{fill:#F8F6B0;}
	.st11{fill:#FDFCE5;}
	.st12{fill:#FFFFFF;}
	.st13{fill:#BCE7FD;stroke:#F5F5F5;stroke-width:0.2787;stroke-miterlimit:10;}
</style>
<g id="XMLID_272_">
	<rect id="XMLID_458_" x="132" y="132.2" class="st0" width="36" height="49.5"/>
	<path id="XMLID_457_" class="st1" d="M172.3,136.2h-44.5v-3.5c3.3-3.3,5.2-5.2,8.5-8.5h27.6c3.3,3.3,5.2,5.2,8.5,8.5V136.2z"/>
	<rect id="XMLID_456_" x="132" y="136.2" class="st2" width="36" height="1"/>
	<rect id="XMLID_455_" x="153.1" y="143" class="st1" width="6" height="3"/>
	<rect id="XMLID_454_" x="139.5" y="160.7" class="st1" width="6" height="3"/>
	<rect id="XMLID_453_" x="132" y="178.7" class="st1" width="6" height="3"/>
	<rect id="XMLID_452_" x="134.5" y="175.7" class="st1" width="6" height="3"/>
	<rect id="XMLID_451_" x="136.9" y="141.7" class="st1" width="6" height="3"/>
	<rect id="XMLID_450_" x="162" y="169.4" class="st1" width="6" height="3"/>
	<g id="XMLID_445_">
		<rect id="XMLID_449_" x="150" y="175.7" class="st3" width="9" height="2"/>
		<rect id="XMLID_448_" x="154.5" y="177.7" class="st3" width="9" height="2"/>
		<rect id="XMLID_447_" x="159" y="179.7" class="st3" width="9" height="2"/>
		<rect id="XMLID_446_" x="150" y="175.7" class="st3" width="9" height="6"/>
	</g>
	<rect id="XMLID_444_" x="139.5" y="138.7" class="st1" width="6" height="3"/>
	<g id="XMLID_439_">
		<rect id="XMLID_443_" x="151.5" y="163.9" class="st4" width="5.9" height="11.7"/>
		<rect id="XMLID_442_" x="151.8" y="164.2" class="st5" width="0.3" height="11.1"/>
		<rect id="XMLID_441_" x="151.8" y="164.2" class="st5" width="5.3" height="0.4"/>
		<rect id="XMLID_440_" x="156.4" y="168.6" class="st1" width="0.3" height="2.3"/>
	</g>
	<rect id="XMLID_438_" x="160.3" y="154.5" class="st1" width="3" height="6"/>
	<g id="XMLID_425_">
		<rect id="XMLID_437_" x="138" y="139.7" class="st6" width="3" height="3"/>
		<rect id="XMLID_436_" x="138.2" y="140" class="st5" width="2.5" height="0.5"/>
		<rect id="XMLID_435_" x="138.2" y="140" class="st5" width="0.5" height="2.5"/>
		<rect id="XMLID_434_" x="141" y="139.7" class="st6" width="3" height="3"/>
		<rect id="XMLID_433_" x="141.2" y="140" class="st5" width="2.5" height="0.5"/>
		<rect id="XMLID_432_" x="141.2" y="140" class="st5" width="0.5" height="2.5"/>
		<rect id="XMLID_431_" x="138" y="142.7" class="st6" width="3" height="3"/>
		<rect id="XMLID_430_" x="138.2" y="143" class="st5" width="2.5" height="0.5"/>
		<rect id="XMLID_429_" x="138.2" y="143" class="st5" width="0.5" height="2.5"/>
		<rect id="XMLID_428_" x="141" y="142.7" class="st6" width="3" height="3"/>
		<rect id="XMLID_427_" x="141.2" y="143" class="st5" width="2.5" height="0.5"/>
		<rect id="XMLID_426_" x="141.2" y="143" class="st5" width="0.5" height="2.5"/>
	</g>
	<g id="XMLID_395_">
		<rect id="XMLID_424_" x="156" y="139.7" class="st6" width="3" height="3"/>
		<rect id="XMLID_423_" x="156.2" y="140" class="st5" width="2.5" height="0.5"/>
		<rect id="XMLID_422_" x="156.2" y="140" class="st5" width="0.5" height="2.5"/>
		<rect id="XMLID_421_" x="159" y="139.7" class="st6" width="3" height="3"/>
		<rect id="XMLID_420_" x="159.2" y="140" class="st5" width="2.5" height="0.5"/>
		<rect id="XMLID_419_" x="159.2" y="140" class="st5" width="0.5" height="2.5"/>
		<rect id="XMLID_418_" x="156" y="142.7" class="st6" width="3" height="3"/>
		<rect id="XMLID_417_" x="156.2" y="143" class="st5" width="2.5" height="0.5"/>
		<rect id="XMLID_399_" x="156.2" y="143" class="st5" width="0.5" height="2.5"/>
		<rect id="XMLID_398_" x="159" y="142.7" class="st6" width="3" height="3"/>
		<rect id="XMLID_397_" x="159.2" y="143" class="st5" width="2.5" height="0.5"/>
		<rect id="XMLID_396_" x="159.2" y="143" class="st5" width="0.5" height="2.5"/>
	</g>
	<g id="XMLID_379_">
		<rect id="XMLID_394_" x="156" y="151.7" class="st6" width="3" height="3"/>
		<rect id="XMLID_393_" x="156.2" y="152" class="st5" width="2.5" height="0.5"/>
		<rect id="XMLID_392_" x="156.2" y="152" class="st5" width="0.5" height="2.5"/>
		<rect id="XMLID_391_" x="159" y="151.7" class="st6" width="3" height="3"/>
		<rect id="XMLID_390_" x="159.2" y="152" class="st5" width="2.5" height="0.5"/>
		<rect id="XMLID_389_" x="159.2" y="152" class="st5" width="0.5" height="2.5"/>
		<rect id="XMLID_388_" x="156" y="154.7" class="st6" width="3" height="3"/>
		<rect id="XMLID_387_" x="156.2" y="155" class="st5" width="2.5" height="0.5"/>
		<rect id="XMLID_386_" x="156.2" y="155" class="st5" width="0.5" height="2.5"/>
		<rect id="XMLID_385_" x="159" y="154.7" class="st6" width="3" height="3"/>
		<rect id="XMLID_384_" x="159.2" y="155" class="st5" width="2.5" height="0.5"/>
		<rect id="XMLID_383_" x="159.2" y="155" class="st5" width="0.5" height="2.5"/>
	</g>
	<g id="XMLID_365_">
		<rect id="XMLID_378_" x="138" y="151.7" class="st6" width="3" height="3"/>
		<rect id="XMLID_377_" x="138.2" y="152" class="st5" width="2.5" height="0.5"/>
		<rect id="XMLID_375_" x="138.2" y="152" class="st5" width="0.5" height="2.5"/>
		<rect id="XMLID_374_" x="141" y="151.7" class="st6" width="3" height="3"/>
		<rect id="XMLID_373_" x="141.2" y="152" class="st5" width="2.5" height="0.5"/>
		<rect id="XMLID_372_" x="141.2" y="152" class="st5" width="0.5" height="2.5"/>
		<rect id="XMLID_371_" x="138" y="154.7" class="st6" width="3" height="3"/>
		<rect id="XMLID_370_" x="138.2" y="155" class="st5" width="2.5" height="0.5"/>
		<rect id="XMLID_369_" x="138.2" y="155" class="st5" width="0.5" height="2.5"/>
		<rect id="XMLID_368_" x="141" y="154.7" class="st6" width="3" height="3"/>
		<rect id="XMLID_367_" x="141.2" y="155" class="st5" width="2.5" height="0.5"/>
		<rect id="XMLID_366_" x="141.2" y="155" class="st5" width="0.5" height="2.5"/>
	</g>
	<g id="XMLID_352_">
		<rect id="XMLID_364_" x="138" y="163.7" class="st6" width="3" height="3"/>
		<rect id="XMLID_363_" x="138.2" y="164" class="st5" width="2.5" height="0.5"/>
		<rect id="XMLID_362_" x="138.2" y="164" class="st5" width="0.5" height="2.5"/>
		<rect id="XMLID_361_" x="141" y="163.7" class="st6" width="3" height="3"/>
		<rect id="XMLID_360_" x="141.2" y="164" class="st5" width="2.5" height="0.5"/>
		<rect id="XMLID_359_" x="141.2" y="164" class="st5" width="0.5" height="2.5"/>
		<rect id="XMLID_358_" x="138" y="166.7" class="st6" width="3" height="3"/>
		<rect id="XMLID_357_" x="138.2" y="167" class="st5" width="2.5" height="0.5"/>
		<rect id="XMLID_356_" x="138.2" y="167" class="st5" width="0.5" height="2.5"/>
		<rect id="XMLID_355_" x="141" y="166.7" class="st6" width="3" height="3"/>
		<rect id="XMLID_354_" x="141.2" y="167" class="st5" width="2.5" height="0.5"/>
		<rect id="XMLID_353_" x="141.2" y="167" class="st5" width="0.5" height="2.5"/>
	</g>
	<rect id="XMLID_351_" x="156" y="121" class="st7" width="1.4" height="3.2"/>
	<rect id="XMLID_350_" x="156.9" y="121.5" class="st8" width="1.6" height="2.7"/>
	<rect id="XMLID_349_" x="155.3" y="118.3" class="st9" width="1.4" height="6"/>
	<g id="XMLID_344_">
		<rect id="XMLID_348_" x="150" y="173.2" class="st3" width="1.8" height="2.5"/>
		<rect id="XMLID_347_" x="153.6" y="173.2" class="st3" width="1.8" height="2.5"/>
		<rect id="XMLID_346_" x="157.2" y="173.2" class="st3" width="1.8" height="2.5"/>
		<rect id="XMLID_345_" x="150" y="172" class="st3" width="9" height="1.3"/>
	</g>
	<g id="XMLID_340_">
		<rect id="XMLID_343_" x="146.5" y="157.8" class="st3" width="0.9" height="23.9"/>
		<ellipse id="XMLID_342_" class="st10" cx="147" cy="157.8" rx="1.8" ry="1.8"/>
		<rect id="XMLID_341_" x="147" y="181.7" class="st0" width="0" height="0"/>
	</g>
	<path id="XMLID_339_" class="st11" d="M147.6,158.9c0.3,0,1-1.3,0.8-1.4c-0.1-0.1-0.6,0.2-0.8,0.6
		C147.4,158.5,147.5,158.9,147.6,158.9z"/>
	<path id="XMLID_338_" class="st12" d="M139.5,155.2"/>
	<g id="XMLID_321_">
		<rect id="XMLID_337_" x="138.5" y="127.8" class="st0" width="6" height="5.6"/>
		<g id="XMLID_324_">
			<rect id="XMLID_336_" x="140" y="130.3" class="st13" width="1.5" height="1.9"/>
			<rect id="XMLID_335_" x="140.1" y="131.7" class="st5" width="1.3" height="0.3"/>
			<rect id="XMLID_334_" x="140.1" y="130.4" class="st5" width="0.3" height="1.6"/>
			<rect id="XMLID_333_" x="141.5" y="130.3" class="st13" width="1.5" height="1.9"/>
			<rect id="XMLID_332_" x="141.6" y="131.7" class="st5" width="1.3" height="0.3"/>
			<rect id="XMLID_331_" x="141.6" y="130.4" class="st5" width="0.3" height="1.6"/>
			<rect id="XMLID_330_" x="140" y="128.4" class="st13" width="1.5" height="1.9"/>
			<rect id="XMLID_329_" x="140.1" y="129.8" class="st5" width="1.3" height="0.3"/>
			<rect id="XMLID_328_" x="140.1" y="128.6" class="st5" width="0.3" height="1.6"/>
			<rect id="XMLID_327_" x="141.5" y="128.4" class="st13" width="1.5" height="1.9"/>
			<rect id="XMLID_326_" x="141.6" y="129.8" class="st5" width="1.3" height="0.3"/>
			<rect id="XMLID_325_" x="141.6" y="128.6" class="st5" width="0.3" height="1.6"/>
		</g>
		<path id="XMLID_323_" class="st9" d="M146,128.7h-9l0,0c0.9-0.9,1.4-1.4,2.2-2.2h4.6C144.6,127.4,145.1,127.9,146,128.7L146,128.7
			z"/>
		<rect id="XMLID_322_" x="137.4" y="132.5" class="st9" width="8" height="0.9"/>
	</g>
	<g id="XMLID_273_">
		<rect id="XMLID_320_" x="155.4" y="127.8" class="st0" width="6" height="5.6"/>
		<g id="XMLID_277_">
			<rect id="XMLID_319_" x="156.9" y="130.3" class="st13" width="1.5" height="1.9"/>
			<rect id="XMLID_318_" x="157" y="131.7" class="st5" width="1.3" height="0.3"/>
			<rect id="XMLID_317_" x="157" y="130.5" class="st5" width="0.3" height="1.6"/>
			<rect id="XMLID_312_" x="158.4" y="130.3" class="st13" width="1.5" height="1.9"/>
			<rect id="XMLID_311_" x="158.5" y="131.7" class="st5" width="1.3" height="0.3"/>
			<rect id="XMLID_310_" x="158.5" y="130.5" class="st5" width="0.3" height="1.6"/>
			<rect id="XMLID_309_" x="156.9" y="128.4" class="st13" width="1.5" height="1.9"/>
			<rect id="XMLID_305_" x="157" y="129.8" class="st5" width="1.3" height="0.3"/>
			<rect id="XMLID_304_" x="157" y="128.6" class="st5" width="0.3" height="1.6"/>
			<rect id="XMLID_281_" x="158.4" y="128.4" class="st13" width="1.5" height="1.9"/>
			<rect id="XMLID_279_" x="158.5" y="129.8" class="st5" width="1.3" height="0.3"/>
			<rect id="XMLID_278_" x="158.5" y="128.6" class="st5" width="0.3" height="1.6"/>
		</g>
		<path id="XMLID_276_" class="st9" d="M162.9,128.8h-9v0c0.9-0.9,1.4-1.4,2.2-2.2h4.6C161.5,127.4,162,127.9,162.9,128.8
			L162.9,128.8z"/>
		<rect id="XMLID_275_" x="154.2" y="132.5" class="st9" width="8" height="0.9"/>
	</g>
</g>
</svg>
