<?xml version="1.0" encoding="utf-8"?>
<!-- Generator: Adobe Illustrator 19.0.0, SVG Export Plug-In . SVG Version: 6.00 Build 0)  -->
<svg version="1.1" id="values" xmlns="http://www.w3.org/2000/svg" xmlns:xlink="http://www.w3.org/1999/xlink" x="0px" y="0px"
	 viewBox="0 0 350 350" style="enable-background:new 0 0 350 350;" xml:space="preserve">
<style type="text/css">
	.st0{fill:#F5F5F5;}
	.st1{fill:#E29D81;}
	.st2{fill:#D3856A;}
	.st3{fill:#FFFFFF;}
	.st4{fill:#DFE2E5;}
	.st5{fill:#F9BDA0;}
	.st6{fill:#FFE4C7;}
	.st7{fill:#E8AB92;}
	.st8{fill:#00263D;}
	.st9{fill:#006D49;}
	.st10{fill:#008C61;}
	.st11{fill:#05365B;}
	.st12{fill:#FFC114;}
	.st13{fill:#EEEDEA;}
	.st14{fill:#FF5A5F;}
	.st15{fill:#FF7B7F;}
	.st16{fill:#6C9E9E;stroke:#F5F5F5;stroke-miterlimit:10;}
	.st17{fill:#FDD2A9;}
	.st18{fill:#379797;stroke:#F5F5F5;stroke-miterlimit:10;}
	.st19{fill:#FDC794;}
	.st20{fill:#FC814A;stroke:#F5F5F5;stroke-miterlimit:10;}
	.st21{fill:none;stroke:#2D3047;stroke-miterlimit:10;}
	.st22{fill:#DB2763;}
	.st23{fill:#F5F5F5;stroke:#FF0949;stroke-miterlimit:10;}
	.st24{fill:#CBCAC1;}
	.st25{fill:#F9A671;}
	.st26{fill:#5E5F62;}
	.st27{fill:#7F5B53;}
	.st28{fill:#802D40;}
	.st29{fill:#E64C3C;}
</style>
<g id="XMLID_82_">
	<ellipse id="XMLID_111_" class="st0" cx="214.1" cy="64.4" rx="53.7" ry="53.8"/>
	<g id="XMLID_108_">
		<path id="XMLID_110_" class="st1" d="M234.1,76.1c3.9-2.5,4.9-7.8,2.3-11.9L233,59c-2.7-4.1-7.9-5.4-11.8-3l-11.7,7.4
			c-3.9,2.5-4.9,7.8-2.3,11.9l3.3,5.1c2.7,4.1,7.9,5.4,11.8,3L234.1,76.1z"/>
		<path id="XMLID_109_" class="st1" d="M232.6,77c1.4-0.9,1.8-2.9,0.9-4.3l0,0c-0.9-1.4-2.9-1.8-4.3-0.9l-21.5,13.6
			c-1.4,0.9-1.8,2.9-0.9,4.3l0,0c0.9,1.4,2.9,1.8,4.3,0.9L232.6,77z"/>
	</g>
	<path id="XMLID_107_" class="st2" d="M207.4,75.3l3.3,5.1c2.7,4.1,7.9,5.4,11.8,3l11.7-7.4c3.9-2.5,4.9-7.8,2.3-11.9l-3.3-5.1"/>
	<g id="XMLID_100_">
		<path id="XMLID_106_" class="st1" d="M219.3,71.9c1.4-0.9,1.8-2.9,0.9-4.3l0,0c-0.9-1.4-2.9-1.8-4.3-0.9l-21.5,13.8
			c-1.4,0.9-1.8,2.9-0.9,4.3l0,0c0.9,1.4,2.9,1.8,4.3,0.9L219.3,71.9z"/>
		<path id="XMLID_105_" class="st1" d="M223.8,76.1c1.4-0.9,1.8-2.9,0.9-4.3l0,0c-0.9-1.4-2.9-1.8-4.3-0.9l-21.5,13.8
			c-1.4,0.9-1.8,2.9-0.9,4.3l0,0c0.9,1.4,2.9,1.8,4.3,0.9L223.8,76.1z"/>
		<path id="XMLID_102_" class="st1" d="M219.2,64.9c1.4-0.9,1.8-2.9,0.9-4.3l0,0c-0.9-1.4-2.9-1.8-4.3-0.9l-21.5,13.8
			c-1.4,0.9-1.8,2.9-0.9,4.3l0,0c0.9,1.4,2.9,1.8,4.3,0.9L219.2,64.9z"/>
		<path id="XMLID_101_" class="st1" d="M223.5,55c0,0-12.1,1.7-13.1,2.1c-0.9,0.3-3.8,7.3-0.5,8.1c3.4,0.8,8.7-3.5,8.7-3.5L223.5,55
			z"/>
	</g>
	<polygon id="XMLID_99_" class="st3" points="226.5,53.2 229.7,51.2 241.5,69.9 238.3,71.9 	"/>
	<polyline id="XMLID_98_" class="st4" points="229.6,51.2 226.5,53.3 238.4,71.9 	"/>
	<path id="XMLID_94_" class="st5" d="M233.7,80.4l-1.9-1.2c1.1,0.1,2.4-0.4,3-1.4c0.9-1.4,0.5-3.4-0.9-4.3l-14.4-9.1
		c1-2.2-1-6.8-1.7-7.1c-0.9-0.3-12-1.8-13-2.1c-3.5-1-7.5,0.5-9.6,3.9l-3.3,5.1c-2.7,4.1-1.6,9.4,2.3,11.9l0.9,0.6
		c0.1,0.1,0.3,0.3,0.5,0.4L217,90.8c1.4,0.9,3.4,0.5,4.3-0.9c0.5-0.8,0.6-1.7,0.3-2.6l4.1,2.7c1.4,0.9,3.4,0.5,4.3-0.9
		c0.7-1,0.6-2.4,0-3.3l0.2,0.1c1.4,0.9,3.4,0.5,4.3-0.9C235.7,83.2,235.3,81.3,233.7,80.4z"/>
	<g id="XMLID_85_">
		<path id="XMLID_93_" class="st6" d="M218.1,89.6c-0.6-0.4-0.8-1.1-0.4-1.7l0.4-0.7c0.4-0.6,1.1-0.8,1.7-0.4l0,0
			c0.6,0.4,0.8,1.1,0.4,1.7l-0.4,0.7C219.5,89.8,218.7,90,218.1,89.6L218.1,89.6z"/>
		<path id="XMLID_92_" class="st6" d="M231.4,84.6c-0.6-0.4-0.8-1.1-0.4-1.7l0.4-0.7c0.4-0.6,1.1-0.8,1.7-0.4l0,0
			c0.6,0.4,0.8,1.1,0.4,1.7l-0.4,0.7C232.8,84.8,232,85,231.4,84.6L231.4,84.6z"/>
		<path id="XMLID_91_" class="st6" d="M226.9,88.7c-0.6-0.4-0.8-1.1-0.4-1.7l0.4-0.7c0.4-0.6,1.1-0.8,1.7-0.4l0,0
			c0.6,0.4,0.8,1.1,0.4,1.7l-0.4,0.7C228.2,88.9,227.5,89.1,226.9,88.7L226.9,88.7z"/>
		<path id="XMLID_90_" class="st6" d="M231.5,77.6c-0.6-0.4-0.8-1.1-0.4-1.7l0.4-0.7c0.4-0.6,1.1-0.8,1.7-0.4l0,0
			c0.6,0.4,0.8,1.1,0.4,1.7l-0.3,0.7C232.9,77.8,232.1,77.9,231.5,77.6L231.5,77.6z"/>
	</g>
	<polygon id="XMLID_84_" class="st3" points="189.8,72 186.6,69.9 198.4,51.2 201.7,53.2 	"/>
	<polyline id="XMLID_83_" class="st4" points="198.5,51.2 201.7,53.3 189.8,71.9 	"/>
	<path id="XMLID_58_" class="st7" d="M233.9,73.3l-14.4-9.1c1-2.2-1-6.8-1.7-7.1c-0.4-0.2-3.3-0.6-6.3-1l-3.3,10.3l27,8.6
		C235,74.3,234.6,73.7,233.9,73.3z"/>
	<path id="XMLID_57_" class="st1" d="M220.2,57.8c0.9,1.5,1.3,5.5,0.1,6.3L210,66.3c-1.2,0.7-2.9,0-3.8-1.4l0,0
		c-0.9-1.5-0.6-3.3,0.6-4l7.4-4.3c1.2-0.7,5-0.5,5.9,0.9L220.2,57.8z"/>
	<path id="XMLID_56_" class="st8" d="M199.3,50l-14.8-9.3c-0.9,1-1.8,2.2-2.6,3.6c-1,1.6-1.9,3.2-2.5,4.6c1.6,7,3.2,13.9,4.7,20.9
		l2,1.3L199.3,50z"/>
	<path id="XMLID_55_" class="st9" d="M227.7,50.2l15.7-9.9c0.9,1,1.8,2.2,2.6,3.6c1,1.6,1.9,3.2,2.5,4.6c-1.8,7.1-3.7,14.2-5.5,21.3
		l-2.2,1.4L227.7,50.2z"/>
	<path id="XMLID_54_" class="st10" d="M243.1,69.9l9.2-5.5c0-2-0.2-4.3-0.7-6.9c-0.7-3.7-1.9-6.7-3-8.9"/>
	<path id="XMLID_48_" class="st11" d="M184.1,69.7l-8.2-5.6c0-2,0.2-4.5,0.8-7.3c0.7-3.2,1.7-5.9,2.6-7.9"/>
	<path id="XMLID_42_" class="st12" d="M189.5,58.1c-0.6,1-1.9,1.2-2.9,0.6c-1-0.6-1.2-1.9-0.6-2.9c0.6-1,1.9-1.2,2.9-0.6
		S190.1,57.2,189.5,58.1z"/>
</g>
<g id="XMLID_12_">
	<ellipse id="XMLID_36_" class="st0" cx="219.8" cy="278.7" rx="53.7" ry="53.8"/>
	<g id="XMLID_17_">
		<g id="XMLID_72_">
			<g id="XMLID_74_">
				<path id="XMLID_76_" class="st5" d="M206.3,277.4c0.9-0.5,2.2-1.3,3.4-2.5c1-0.9,1.5-1.7,2-2.4c3.5-4.9,4.1-5.2,5.9-8.2
					c0.5-0.8,1.2-2.1,1.5-3.9c0.4-2.2-0.1-4-0.4-5c0.1-0.9,0.9-1.7,1.9-1.9c1.1-0.2,2.3,0.3,2.9,1.2c0.6,0.8,1.4,2,1.8,3.7
					c0.3,1,0.3,1.8,0.3,2.4c0,0.2,0,0.4,0,0.6c0,0,0,0.1,0,0.2c-1.2,19.9-7.9,22.1-7.9,22.1c-0.7,0.2-2,0.5-3.8,0.2
					C211.4,281.7,209,279.8,206.3,277.4z"/>
				<path id="XMLID_75_" class="st6" d="M218.8,255.6c0-0.1,0.1-0.1,0.1-0.2c0.3,0.4,0.8,1.4,0.7,2.7c-0.1,0.6-0.2,1-0.4,1.3
					c0.1-0.8,0.1-1.7-0.1-2.7C219,256.3,218.9,255.9,218.8,255.6z"/>
			</g>
			<path id="XMLID_73_" class="st5" d="M218.6,299.1"/>
		</g>
		<path id="XMLID_70_" class="st5" d="M240.4,276.2h-23.7c-0.2,0-0.4,0.2-0.4,0.4v5.4c0,0.2,0.2,0.4,0.4,0.4h23.7
			c1.2,0,2.3-1,2.3-2.3v-1.7C242.6,277.2,241.6,276.2,240.4,276.2z"/>
		<rect id="XMLID_69_" x="237.9" y="270.8" class="st5" width="0.1" height="0"/>
		<path id="XMLID_68_" class="st5" d="M242.6,282.3h-23.7c-0.2,0-0.4,0.2-0.4,0.4v5.4c0,0.2,0.2,0.4,0.4,0.4h23.7
			c1.2,0,2.3-1,2.3-2.3v-1.7C244.8,283.4,243.8,282.3,242.6,282.3z"/>
		<path id="XMLID_67_" class="st5" d="M240.4,288.4h-23.7c-0.2,0-0.4,0.2-0.4,0.4v5.4c0,0.2,0.2,0.4,0.4,0.4h23.7
			c1.2,0,2.3-1,2.3-2.3v-1.7C242.6,289.4,241.6,288.4,240.4,288.4z"/>
		<path id="XMLID_8_" class="st5" d="M238.4,294.6h-23.7c-0.2,0-0.4,0.2-0.4,0.4v5.4c0,0.2,0.2,0.4,0.4,0.4h23.7
			c1.2,0,2.3-1,2.3-2.3v-1.7C240.7,295.6,239.7,294.6,238.4,294.6z"/>
		<path id="XMLID_24_" class="st5" d="M216.7,300.9l-11.6-0.4l0.9-24.7c0.6-0.1,1.4-0.2,2.3-0.5c2.8-0.9,4.4-2.5,4.5-2.5
			c0,0-0.8,0.8-4.2,3.6c4.3,2,8.6,4.1,12.9,6.1c0.6,1.2,2.7,5.8,0.8,11.2C220.8,297.6,218,300,216.7,300.9z"/>
		<rect id="XMLID_23_" x="202.1" y="274.8" class="st0" width="3.5" height="27.4"/>
		<polygon id="XMLID_22_" class="st13" points="202.1,302.2 205.6,274.8 202.1,274.8 		"/>
		<rect id="XMLID_18_" x="195.2" y="273.5" class="st14" width="7.8" height="29.9"/>
		<polygon id="XMLID_16_" class="st15" points="199.9,303.5 195.2,303.5 195.2,273.6 		"/>
	</g>
</g>
<g id="XMLID_78_">
	<circle id="XMLID_104_" class="st0" cx="69.7" cy="274.4" r="54"/>
	<g id="XMLID_79_">
		<g id="XMLID_96_">
			<path id="XMLID_103_" class="st16" d="M80.8,291.4c-0.1-11.4,6.8-20.9,15.1-20.9c8.3,0,15.2,9.5,15.1,21"/>
			<g id="XMLID_97_">
				<path id="XMLID_122_" class="st17" d="M95.8,272.4c-4.6,0-8.4-3.8-8.4-8.4s3.8-8.4,8.4-8.4H96c4.6,0,8.4,3.8,8.4,8.4
					s-3.8,8.4-8.4,8.4H95.8z"/>
				<path id="XMLID_119_" class="st0" d="M96,256.2c4.3,0,7.9,3.5,7.9,7.9s-3.5,7.9-7.9,7.9h-0.3c-4.3,0-7.9-3.5-7.9-7.9
					c0-4.3,3.5-7.9,7.9-7.9H96 M96,255.2h-0.3c-4.9,0-8.9,4-8.9,8.9v0c0,4.9,4,8.9,8.9,8.9H96c4.9,0,8.9-4,8.9-8.9v0
					C104.9,259.2,100.9,255.2,96,255.2L96,255.2z"/>
			</g>
		</g>
		<g id="XMLID_88_">
			<path id="XMLID_95_" class="st16" d="M27.8,291.4c-0.1-11.4,6.8-20.9,15.1-20.9c8.3,0,15.2,9.5,15.1,21"/>
			<g id="XMLID_89_">
				<path id="XMLID_117_" class="st17" d="M42.8,272.4c-4.6,0-8.4-3.8-8.4-8.4s3.8-8.4,8.4-8.4H43c4.6,0,8.4,3.8,8.4,8.4
					s-3.8,8.4-8.4,8.4H42.8z"/>
				<path id="XMLID_114_" class="st0" d="M43,256.2c4.3,0,7.9,3.5,7.9,7.9s-3.5,7.9-7.9,7.9h-0.3c-4.3,0-7.9-3.5-7.9-7.9
					c0-4.3,3.5-7.9,7.9-7.9H43 M43,255.2h-0.3c-4.9,0-8.9,4-8.9,8.9v0c0,4.9,4,8.9,8.9,8.9H43c4.9,0,8.9-4,8.9-8.9v0
					C51.9,259.2,47.9,255.2,43,255.2L43,255.2z"/>
			</g>
		</g>
		<g id="XMLID_80_">
			<path id="XMLID_87_" class="st18" d="M54.3,293.9c-0.1-11.4,6.8-20.9,15.1-20.9c8.3,0,15.2,9.5,15.1,21"/>
			<g id="XMLID_81_">
				<path id="XMLID_112_" class="st19" d="M69.3,276c-4.6,0-8.4-3.8-8.4-8.4s3.8-8.4,8.4-8.4h0.3c4.6,0,8.4,3.8,8.4,8.4
					s-3.8,8.4-8.4,8.4H69.3z"/>
				<path id="XMLID_50_" class="st0" d="M69.5,259.8c4.3,0,7.9,3.5,7.9,7.9s-3.5,7.9-7.9,7.9h-0.3c-4.3,0-7.9-3.5-7.9-7.9
					s3.5-7.9,7.9-7.9H69.5 M69.5,258.8h-0.3c-4.9,0-8.9,4-8.9,8.9s4,8.9,8.9,8.9h0.3c4.9,0,8.9-4,8.9-8.9S74.4,258.8,69.5,258.8
					L69.5,258.8z"/>
			</g>
		</g>
	</g>
</g>
<g id="XMLID_61_">
	<circle id="XMLID_13_" class="st0" cx="273.3" cy="171.4" r="54"/>
	<g id="XMLID_60_">
		<g id="XMLID_1_">
			<path id="XMLID_26_" class="st20" d="M252.5,195.9c-0.1-15.6,9.2-28.5,20.5-28.5c11.3,0,20.7,13,20.5,28.6"/>
			<g id="XMLID_15_">
				<path id="XMLID_47_" class="st19" d="M272.8,171.7c-6.4,0-11.6-5.2-11.6-11.6c0-6.4,5.2-11.6,11.6-11.6h0.3
					c6.4,0,11.6,5.2,11.6,11.6c0,6.4-5.2,11.6-11.6,11.6H272.8z"/>
				<path id="XMLID_43_" class="st0" d="M273.2,149c6.1,0,11.1,5,11.1,11.1s-5,11.1-11.1,11.1h-0.3c-6.1,0-11.1-5-11.1-11.1
					s5-11.1,11.1-11.1H273.2 M273.2,148h-0.3c-6.7,0-12.1,5.4-12.1,12.1v0c0,6.7,5.4,12.1,12.1,12.1h0.3c6.7,0,12.1-5.4,12.1-12.1v0
					C285.3,153.4,279.8,148,273.2,148L273.2,148z"/>
			</g>
		</g>
		<path id="XMLID_77_" class="st21" d="M286.9,160.3c0.1,0.4,0.6,5-2.5,7.7c-3.1,2.6-8.6,2.3-12.3-1.5"/>
		<path id="XMLID_63_" class="st21" d="M287,163c1-8.9-5.9-16.4-14-16.5c-8.1,0-15.1,7.6-14,16.5"/>
		<path id="XMLID_65_" class="st22" d="M286.4,164.3c1.8,0,3.3-1.5,3.3-3.3s-1.5-3.3-3.3-3.3"/>
		<path id="XMLID_62_" class="st22" d="M259.6,157.8c-1.8,0-3.3,1.5-3.3,3.3s1.5,3.3,3.3,3.3"/>
		<path id="XMLID_64_" class="st23" d="M256.9,160.5c-0.6,0-1,0.2-1,0.5s0.4,0.5,1,0.5"/>
		<path id="XMLID_66_" class="st23" d="M288.9,160.5c0.6,0,1,0.2,1,0.5s-0.4,0.5-1,0.5"/>
		<path id="XMLID_71_" class="st24" d="M270.7,164.6l-0.4,0.3c-0.3,0.3-0.4,0.9,0,1.2l1.5,1.6c0.3,0.3,0.9,0.4,1.2,0l0.4-0.3
			c0.3-0.3,0.4-0.9,0-1.2l-1.5-1.6C271.6,164.3,271.1,164.3,270.7,164.6z"/>
	</g>
</g>
<g id="XMLID_14_">
	<path id="XMLID_86_" class="st0" d="M201.9,176.1c0,29.8-24.2,54-54,54c-29.8,0-54-24.2-54-54c0-29.8,24.2-54,54-54
		C177.7,122.1,201.9,146.3,201.9,176.1z"/>
	<g id="XMLID_2_">
		<path id="XMLID_59_" class="st19" d="M148.3,202.1c11.2,0.1,17.5-4.4,21-9.2c3.6-5,4.7-11.3,3.6-17.3
			c-4.1-21.8-24.7-21.6-24.7-21.6s-20.6-0.1-24.6,21.7c-1.1,6,0.1,12.4,3.7,17.3C130.8,197.8,137.1,202.3,148.3,202.1z"/>
		<path id="XMLID_52_" class="st25" d="M123.4,177.3c-0.5-0.4-1-0.7-1.6-0.7c-1.6,0-2.9,2-2.9,4.4c0,2.4,1.3,4.4,2.9,4.4
			c0.7,0,1.3-0.4,1.8-1C123.2,182.1,123.1,179.7,123.4,177.3z"/>
		<path id="XMLID_46_" class="st25" d="M176.7,173.4c-0.6-2.4-2.3-4-3.9-3.6c-0.5,0.1-0.9,0.4-1.2,0.9c0.5,1.5,1,3.2,1.3,5
			c0.2,0.8,0.3,1.7,0.3,2.5c0.5,0.3,1.1,0.4,1.6,0.3C176.5,178.1,177.3,175.8,176.7,173.4z"/>
		<path id="XMLID_38_" class="st26" d="M132.8,164.1c-0.3,0-0.5-0.1-0.7-0.3l-5-5c-0.4-0.4-0.4-1,0-1.4c0.4-0.4,1-0.4,1.4,0l5,5
			c0.4,0.4,0.4,1,0,1.4C133.3,164,133.1,164.1,132.8,164.1z"/>
		<path id="XMLID_27_" class="st26" d="M135.8,161.1c-0.4,0-0.7-0.2-0.9-0.6l-3-6c-0.2-0.5,0-1.1,0.4-1.3c0.5-0.2,1.1,0,1.3,0.4l3,6
			c0.2,0.5,0,1.1-0.4,1.3C136.1,161.1,136,161.1,135.8,161.1z"/>
		<path id="XMLID_25_" class="st26" d="M139.8,159.1c-0.4,0-0.8-0.3-0.9-0.7l-2-6c-0.2-0.5,0.1-1.1,0.6-1.3c0.5-0.2,1.1,0.1,1.3,0.6
			l2,6c0.2,0.5-0.1,1.1-0.6,1.3C140,159.1,139.9,159.1,139.8,159.1z"/>
		<path id="XMLID_21_" class="st26" d="M144.8,158.1c-0.5,0-0.9-0.3-1-0.8l-1-6c-0.1-0.5,0.3-1.1,0.8-1.2c0.5-0.1,1.1,0.3,1.1,0.8
			l1,6c0.1,0.5-0.3,1.1-0.8,1.1C144.9,158.1,144.9,158.1,144.8,158.1z"/>
		<path id="XMLID_20_" class="st26" d="M148.8,158.1c-0.6,0-1-0.4-1-1v-6c0-0.6,0.4-1,1-1c0.6,0,1,0.4,1,1v6
			C149.8,157.7,149.4,158.1,148.8,158.1z"/>
		<path id="XMLID_19_" class="st26" d="M152.8,158.1c-0.1,0-0.2,0-0.3-0.1c-0.5-0.2-0.8-0.7-0.6-1.3l2-6c0.2-0.5,0.7-0.8,1.3-0.6
			c0.5,0.2,0.8,0.7,0.6,1.3l-2,6C153.6,157.9,153.2,158.1,152.8,158.1z"/>
		<path id="XMLID_11_" class="st26" d="M156.8,159.1c-0.1,0-0.2,0-0.3-0.1c-0.5-0.2-0.8-0.7-0.6-1.3l2-6c0.2-0.5,0.7-0.8,1.3-0.6
			c0.5,0.2,0.8,0.7,0.6,1.3l-2,6C157.6,158.9,157.2,159.1,156.8,159.1z"/>
		<path id="XMLID_10_" class="st26" d="M159.8,161.1c-0.1,0-0.3,0-0.4-0.1c-0.5-0.2-0.7-0.8-0.4-1.3l3-6c0.2-0.5,0.8-0.7,1.3-0.4
			c0.5,0.2,0.7,0.8,0.4,1.3l-3,6C160.5,160.9,160.2,161.1,159.8,161.1z"/>
		<ellipse id="XMLID_9_" class="st3" cx="138.9" cy="171.6" rx="6" ry="7.5"/>
		<ellipse id="XMLID_7_" class="st27" cx="138.9" cy="171.6" rx="3" ry="4.5"/>
		<ellipse id="XMLID_6_" class="st3" cx="156.9" cy="171.6" rx="6" ry="7.5"/>
		<ellipse id="XMLID_5_" class="st27" cx="156.9" cy="171.6" rx="3" ry="4.5"/>
		<path id="XMLID_4_" class="st28" d="M134.9,186.1L134.9,186.1c0,3.9,2.1,7.4,5.5,9.1c2.1,1,4.7,1.7,7.4,1.7c2.7,0,5.3-0.6,7.4-1.7
			c3.4-1.7,5.6-5.3,5.6-9.1l0,0H134.9z"/>
		<path id="XMLID_3_" class="st29" d="M156.9,194.2L156.9,194.2c0-2.5-4.3-3.6-9-3.6s-9,1.1-9,3.5l0,0.1c0.5,0.4,1,0.7,1.6,1
			c2.1,1,4.7,1.7,7.4,1.7c2.7,0,5.3-0.6,7.4-1.7C155.9,195,156.4,194.6,156.9,194.2z"/>
	</g>
</g>
</svg>
